<?xml version="1.0" encoding="UTF-8" standalone="no"?>
<svg
   xmlns:dc="http://purl.org/dc/elements/1.1/"
   xmlns:cc="http://creativecommons.org/ns#"
   xmlns:rdf="http://www.w3.org/1999/02/22-rdf-syntax-ns#"
   xmlns:svg="http://www.w3.org/2000/svg"
   xmlns="http://www.w3.org/2000/svg"
   xmlns:sodipodi="http://sodipodi.sourceforge.net/DTD/sodipodi-0.dtd"
   xmlns:inkscape="http://www.inkscape.org/namespaces/inkscape"
   width="24.293507mm"
   height="23.856173mm"
   viewBox="0 0 24.293507 23.856173"
   version="1.1"
   id="svg8"
   inkscape:version="1.0.1 (3bc2e813f5, 2020-09-07)"
   sodipodi:docname="paw.svg">
  <defs
     id="defs2" />
  <sodipodi:namedview
     id="base"
     pagecolor="#ffffff"
     bordercolor="#666666"
     borderopacity="1.0"
     inkscape:pageopacity="0.0"
     inkscape:pageshadow="2"
     inkscape:zoom="1.979899"
     inkscape:cx="21.793454"
     inkscape:cy="89.155508"
     inkscape:document-units="mm"
     inkscape:current-layer="layer1"
     inkscape:document-rotation="0"
     showgrid="false"
     inkscape:window-width="1920"
     inkscape:window-height="1017"
     inkscape:window-x="-8"
     inkscape:window-y="-8"
     inkscape:window-maximized="1" />
  <metadata
     id="metadata5">
    <rdf:RDF>
      <cc:Work
         rdf:about="">
        <dc:format>image/svg+xml</dc:format>
        <dc:type
           rdf:resource="http://purl.org/dc/dcmitype/StillImage" />
        <dc:title></dc:title>
      </cc:Work>
    </rdf:RDF>
  </metadata>
  <g
     inkscape:label="Layer 1"
     inkscape:groupmode="layer"
     id="layer1"
     transform="translate(-67.207084,-28.113507)">
    <path
       style="opacity:0.97;fill:#f7ca62;fill-opacity:1;stroke:#f6c963;stroke-width:0.921655;stroke-linecap:round;stroke-linejoin:round;stroke-miterlimit:4.7;stroke-opacity:0.972549"
       id="path835"
       sodipodi:type="arc"
       sodipodi:cx="79.353813"
       sodipodi:cy="40.041653"
       sodipodi:rx="11.684016"
       sodipodi:ry="11.465228"
       sodipodi:start="1.3524457"
       sodipodi:end="1.3189453"
       sodipodi:arc-type="slice"
       d="M 81.884801,51.234651 A 11.684016,11.465228 0 0 1 67.968819,42.618901 11.684016,11.465228 0 0 1 76.632126,28.891823 11.684016,11.465228 0 0 1 90.69322,37.277644 11.684016,11.465228 0 0 1 82.265435,51.145185 L 79.353813,40.041653 Z" />
    <path
       style="opacity:0.97;fill:#000000;fill-opacity:1;stroke:#000000;stroke-width:0.531808;stroke-linecap:round;stroke-linejoin:round;stroke-miterlimit:4.7;stroke-opacity:0.945098"
       id="path833-0"
       sodipodi:type="arc"
       sodipodi:cx="82.95256"
       sodipodi:cy="42.998463"
       sodipodi:rx="3.1813815"
       sodipodi:ry="3.5279243"
       sodipodi:start="1.3224592"
       sodipodi:end="1.3189453"
       sodipodi:arc-type="slice"
       d="m 83.73452,46.418159 a 3.1813815,3.5279243 0 0 1 -3.865056,-2.549555 3.1813815,3.5279243 0 0 1 2.29572,-4.288309 3.1813815,3.5279243 0 0 1 3.86909,2.542021 3.1813815,3.5279243 0 0 1 -2.288923,4.292775 L 82.95256,42.998463 Z" />
    <path
       style="opacity:0.97;fill:#000000;fill-opacity:1;stroke:#000000;stroke-width:0.66874;stroke-linecap:round;stroke-linejoin:round;stroke-miterlimit:4.7;stroke-opacity:0.945098"
       id="path833-0-8"
       sodipodi:type="arc"
       sodipodi:cx="80.718193"
       sodipodi:cy="42.012764"
       sodipodi:rx="4.5452046"
       sodipodi:ry="3.9047072"
       sodipodi:start="1.3224592"
       sodipodi:end="1.3189453"
       sodipodi:arc-type="slice"
       d="m 81.83537,45.797684 a 4.5452046,3.9047072 0 0 1 -5.521963,-2.821848 4.5452046,3.9047072 0 0 1 3.27987,-4.7463 4.5452046,3.9047072 0 0 1 5.527726,2.813509 4.5452046,3.9047072 0 0 1 -3.270159,4.751244 l -1.132651,-3.781525 z" />
    <path
       style="opacity:0.97;fill:#000000;fill-opacity:1;stroke:#000000;stroke-width:0.281153;stroke-linecap:round;stroke-linejoin:round;stroke-miterlimit:4.7;stroke-opacity:0.945098"
       id="path833-0-5"
       sodipodi:type="arc"
       sodipodi:cx="40.758259"
       sodipodi:cy="75.471291"
       sodipodi:rx="1.564128"
       sodipodi:ry="2.0055752"
       sodipodi:start="1.3224592"
       sodipodi:end="1.3189453"
       sodipodi:arc-type="slice"
       d="m 41.14271,77.41534 a 1.564128,2.0055752 0 0 1 -1.900257,-1.449387 1.564128,2.0055752 0 0 1 1.128692,-2.437842 1.564128,2.0055752 0 0 1 1.90224,1.445103 1.564128,2.0055752 0 0 1 -1.12535,2.440382 l -0.389776,-1.942305 z"
       transform="matrix(0.82411554,-0.56642172,0.52885966,0.84870929,0,0)" />
    <path
       style="opacity:0.97;fill:#000000;fill-opacity:1;stroke:#000000;stroke-width:0.281152;stroke-linecap:round;stroke-linejoin:round;stroke-miterlimit:4.7;stroke-opacity:0.945098"
       id="path833-0-5-3"
       sodipodi:type="arc"
       sodipodi:cx="45.354347"
       sodipodi:cy="72.713181"
       sodipodi:rx="1.564128"
       sodipodi:ry="2.0055752"
       sodipodi:start="1.3224592"
       sodipodi:end="1.3189453"
       sodipodi:arc-type="slice"
       d="m 45.738798,74.65723 a 1.564128,2.0055752 0 0 1 -1.900257,-1.449387 1.564128,2.0055752 0 0 1 1.128692,-2.437842 1.564128,2.0055752 0 0 1 1.90224,1.445103 1.564128,2.0055752 0 0 1 -1.12535,2.440381 l -0.389776,-1.942304 z"
       transform="matrix(0.82411554,-0.56642172,0.52885966,0.84870929,0,0)" />
    <path
       style="opacity:0.97;fill:#000000;fill-opacity:1;stroke:#000000;stroke-width:0.281152;stroke-linecap:round;stroke-linejoin:round;stroke-miterlimit:4.7;stroke-opacity:0.945098"
       id="path833-0-5-0"
       sodipodi:type="arc"
       sodipodi:cx="50.193382"
       sodipodi:cy="73.980446"
       sodipodi:rx="1.564128"
       sodipodi:ry="2.0055752"
       sodipodi:start="1.3224592"
       sodipodi:end="1.3189453"
       sodipodi:arc-type="slice"
       d="m 50.577833,75.924495 a 1.564128,2.0055752 0 0 1 -1.900257,-1.449386 1.564128,2.0055752 0 0 1 1.128692,-2.437843 1.564128,2.0055752 0 0 1 1.90224,1.445103 1.564128,2.0055752 0 0 1 -1.12535,2.440382 l -0.389776,-1.942305 z"
       transform="matrix(0.82411554,-0.56642172,0.52885966,0.84870929,0,0)" />
    <path
       style="opacity:0.97;fill:#000000;fill-opacity:1;stroke:#000000;stroke-width:0.281152;stroke-linecap:round;stroke-linejoin:round;stroke-miterlimit:4.7;stroke-opacity:0.945098"
       id="path833-0-5-8"
       sodipodi:type="arc"
       sodipodi:cx="52.97905"
       sodipodi:cy="78.353737"
       sodipodi:rx="1.564128"
       sodipodi:ry="2.0055752"
       sodipodi:start="1.3224592"
       sodipodi:end="1.3189453"
       sodipodi:arc-type="slice"
       d="m 53.363501,80.297786 a 1.564128,2.0055752 0 0 1 -1.900257,-1.449386 1.564128,2.0055752 0 0 1 1.128692,-2.437843 1.564128,2.0055752 0 0 1 1.90224,1.445103 1.564128,2.0055752 0 0 1 -1.12535,2.440382 L 52.97905,78.353737 Z"
       transform="matrix(0.82411554,-0.56642172,0.52885966,0.84870929,0,0)" />
    <path
       style="opacity:0.97;fill:#000000;fill-opacity:1;stroke:#000000;stroke-width:0.525452;stroke-linecap:round;stroke-linejoin:round;stroke-miterlimit:4.7;stroke-opacity:0.945098"
       id="path833"
       sodipodi:type="arc"
       sodipodi:cx="78.527122"
       sodipodi:cy="43.79879"
       sodipodi:rx="3.1177504"
       sodipodi:ry="3.5144024"
       sodipodi:start="1.3224592"
       sodipodi:end="1.3189453"
       sodipodi:arc-type="slice"
       d="m 79.293442,47.205379 a 3.1177504,3.5144024 0 0 1 -3.787751,-2.539783 3.1177504,3.5144024 0 0 1 2.249804,-4.271872 3.1177504,3.5144024 0 0 1 3.791703,2.532278 3.1177504,3.5144024 0 0 1 -2.243141,4.276321 L 78.527122,43.79879 Z" />
  </g>
</svg>
